<?xml version="1.0" standalone="no"?>
<!DOCTYPE svg PUBLIC "-//W3C//DTD SVG 20010904//EN"
 "http://www.w3.org/TR/2001/REC-SVG-20010904/DTD/svg10.dtd">
<svg version="1.0" xmlns="http://www.w3.org/2000/svg"
 width="191.000000pt" height="134.000000pt" viewBox="0 0 191.000000 134.000000"
 preserveAspectRatio="xMidYMid meet">

<g transform="translate(0.000000,134.000000) scale(0.100000,-0.100000)"
fill="#000000" stroke="none">
<path d="M0 1043 l0 -298 21 35 c12 19 26 38 32 42 6 3 12 15 13 24 2 10 11
24 20 31 10 7 14 13 9 13 -4 0 1 8 12 18 11 9 22 25 26 35 4 10 11 16 16 12 5
-3 16 3 23 14 18 25 181 147 209 156 12 4 32 16 43 26 11 11 25 19 31 19 15 0
140 54 157 68 8 6 17 10 20 7 2 -3 27 1 54 9 145 42 488 44 551 3 13 -8 37
-15 86 -24 15 -3 27 -9 27 -14 0 -5 6 -9 13 -9 7 0 22 -8 33 -18 11 -10 24
-17 30 -15 6 2 19 -6 29 -17 10 -11 22 -20 26 -20 4 0 34 -26 66 -59 75 -76
111 -116 96 -107 -18 10 -16 0 4 -20 28 -27 34 -81 11 -96 -8 -6 -5 -7 11 -3
16 5 21 4 17 -4 -12 -19 -38 -12 -134 34 -163 78 -268 107 -412 112 -111 3
-122 2 -101 -10 18 -11 20 -16 10 -20 -8 -3 3 -6 23 -6 74 -2 176 -61 227
-132 16 -21 32 -35 36 -31 5 4 5 2 2 -4 -3 -6 1 -33 9 -60 20 -64 11 -130 -26
-204 -40 -80 -101 -128 -198 -156 l-77 -22 65 -7 c77 -8 177 7 278 41 100 33
135 52 222 121 115 91 121 94 144 78 16 -12 17 -17 6 -30 -10 -12 -10 -15 1
-15 11 -1 11 -3 -1 -13 -15 -12 -22 -30 -23 -54 0 -7 -4 -10 -9 -7 -4 3 -8 -2
-8 -10 0 -9 -4 -16 -10 -16 -5 0 -10 -6 -10 -14 0 -7 -15 -28 -32 -47 -18 -19
-33 -36 -33 -39 0 -3 -3 -4 -7 -2 -5 1 -8 -2 -8 -8 0 -9 -51 -68 -120 -139
-14 -14 -24 -29 -22 -34 1 -5 -2 -6 -7 -3 -5 4 -18 -2 -28 -12 -31 -31 -86
-61 -169 -88 -94 -32 -99 -33 -239 -40 -60 -4 -112 -8 -114 -10 -2 -2 219 -4
492 -4 l497 0 0 670 0 670 -955 0 -955 0 0 -297z m1515 -293 c0 0 -1 -18 -3
-40 -2 -22 -8 -40 -14 -40 -5 0 -6 -4 -3 -10 3 -5 2 -10 -3 -10 -13 0 -22 -39
-11 -46 16 -10 10 -81 -10 -105 -16 -21 -21 -22 -36 -9 -13 11 -15 24 -11 59
3 25 7 56 8 69 1 12 6 22 11 22 4 0 6 4 3 8 -2 4 -1 14 3 21 5 7 2 29 -5 49
-15 44 -5 54 40 41 17 -5 31 -9 31 -9z"/>
<path d="M1478 743 c7 -3 16 -2 19 1 4 3 -2 6 -13 5 -11 0 -14 -3 -6 -6z"/>
<path d="M770 966 c-25 -7 -81 -23 -124 -36 -143 -40 -256 -88 -351 -148 -124
-79 -145 -94 -145 -106 0 -15 38 -67 57 -79 7 -5 48 -34 91 -66 87 -65 160
-99 294 -136 87 -24 298 -47 298 -32 0 4 -18 16 -41 27 -67 34 -134 108 -158
173 -11 32 -21 73 -21 92 0 100 101 245 187 268 52 13 57 28 8 20 -40 -6 -47
8 -12 25 21 10 21 11 -8 11 -16 0 -50 -6 -75 -13z m-153 -148 c-30 -45 -40
-165 -22 -249 9 -43 31 -88 58 -116 30 -34 14 -39 -51 -18 -67 23 -133 79
-140 121 -9 52 -5 124 9 152 16 33 129 142 129 125 0 -4 5 -2 12 5 18 18 21 6
5 -20z"/>
<path d="M961 705 c-62 -61 54 -149 121 -91 48 41 41 84 -16 106 -43 16 -79
11 -105 -15z"/>
<path d="M30 556 c0 -7 -7 -19 -15 -26 -13 -10 -15 -53 -15 -271 l0 -259 427
0 c234 0 424 2 422 4 -2 2 -35 7 -74 11 -111 10 -333 70 -355 95 -6 7 -92 45
-101 45 -4 0 -11 4 -16 9 -5 6 -2 6 7 1 13 -8 13 -7 1 8 -15 18 -26 23 -16 7
13 -22 -10 -8 -67 40 -33 27 -56 50 -53 50 11 0 -37 36 -59 43 -10 4 -16 13
-13 21 3 8 -1 17 -9 20 -9 3 -13 10 -10 14 3 5 -3 16 -14 24 -11 10 -17 27
-16 46 2 23 -2 29 -14 25 -12 -4 -11 -2 2 10 10 8 15 17 11 20 -3 4 -2 7 4 7
5 0 15 12 21 26 7 15 8 23 2 19 -6 -3 -13 1 -16 9 -8 20 -34 21 -34 2z"/>
</g>
</svg>
